<svg width="271" height="42" viewBox="0 0 271 42" fill="none" xmlns="http://www.w3.org/2000/svg">
<g clip-path="url(#clip0_132_533)">
<path d="M61.84 19.27H45.3V23.17H61.84V19.27Z" fill="#043268"/>
<path d="M61.84 9.85004H45.3V13.66H61.84V9.85004Z" fill="#043268"/>
<path d="M61.84 28.45H45.3V32.32H61.84V28.45Z" fill="#043268"/>
<path d="M105.03 12.18C104.32 11.47 103.47 10.9 102.51 10.48C101.53 10.06 100.5 9.85004 99.3901 9.85004H81.3901V9.88004L75.5601 17.95L69.7301 9.88004H64.3601L72.8901 21.2L64.5501 32.31H69.9201L75.5601 24.49L81.2101 32.31H86.5801L78.2401 21.2L83.9001 13.66H98.9501C99.6201 13.66 100.21 13.78 100.72 14.02C101.23 14.26 101.66 14.58 102.01 14.97C102.36 15.36 102.62 15.81 102.81 16.31C103 16.81 103.09 17.32 103.09 17.83C103.09 18.34 103.02 18.83 102.88 19.3C102.74 19.77 102.51 20.19 102.22 20.56C101.93 20.92 101.54 21.22 101.07 21.43C100.6 21.64 100.05 21.75 99.4101 21.75H89.4101V32.3H93.7101V25.61H98.7101C100.13 25.61 101.39 25.41 102.49 25C103.58 24.6 104.49 24.05 105.21 23.34C105.92 22.63 106.46 21.82 106.83 20.88C107.2 19.94 107.39 18.91 107.39 17.81C107.39 16.71 107.18 15.67 106.76 14.7C106.34 13.72 105.78 12.88 105.05 12.16L105.03 12.18Z" fill="#043268"/>
<path d="M126.72 19.27H110.19V23.17H126.72V19.27Z" fill="#043268"/>
<path d="M126.72 28.45H110.19V32.32H126.72V28.45Z" fill="#043268"/>
<path d="M147.82 22.03C148.67 20.76 149.09 19.28 149.09 17.58C149.09 16.46 148.9 15.42 148.52 14.47C148.14 13.52 147.62 12.7 146.94 12.01C146.26 11.32 145.45 10.79 144.5 10.41C143.54 10.03 142.5 9.84003 141.35 9.84003H110.19V13.65H141.34C142.09 13.65 142.69 13.79 143.14 14.08C143.59 14.36 143.93 14.71 144.18 15.12C144.43 15.53 144.59 15.96 144.67 16.41C144.75 16.86 144.8 17.25 144.8 17.58C144.8 18.21 144.69 18.76 144.48 19.24C144.27 19.72 144 20.1 143.67 20.42C143.35 20.74 142.98 20.97 142.56 21.13C142.14 21.28 141.74 21.36 141.35 21.36H131.15V32.32H135.45V25.17H139.7C140.56 26.4 141.42 27.6 142.27 28.79C143.12 29.98 144 31.16 144.9 32.32H150.02C148.18 29.78 146.31 27.26 144.43 24.77C145.84 24.21 146.98 23.31 147.83 22.04L147.82 22.03Z" fill="#043268"/>
<path d="M150.93 9.85004V13.66H157.38V32.31H161.67V13.66H168.09V9.85004H150.93Z" fill="#043268"/>
<path d="M183.03 23.9H186.9C186.7 24.62 186.37 25.27 185.94 25.87C185.5 26.46 184.98 26.97 184.39 27.4C183.8 27.83 183.15 28.17 182.43 28.4C181.71 28.63 180.97 28.75 180.19 28.75C179.17 28.75 178.21 28.54 177.32 28.12C176.43 27.7 175.65 27.15 174.99 26.45C174.33 25.76 173.8 24.95 173.41 24.03C173.02 23.11 172.82 22.14 172.82 21.11C172.82 20.08 173.02 19.14 173.41 18.21C173.8 17.28 174.32 16.46 174.99 15.77C175.65 15.08 176.43 14.51 177.32 14.1C178.21 13.69 179.17 13.47 180.19 13.47C181.42 13.47 182.56 13.8 183.61 14.45C184.67 15.11 185.52 15.91 186.17 16.88L189.85 14.64C188.81 13.06 187.44 11.81 185.76 10.86C184.07 9.92001 182.22 9.45001 180.19 9.45001C178.59 9.45001 177.09 9.76001 175.68 10.37C174.26 10.99 173.03 11.82 171.97 12.87C170.91 13.92 170.07 15.16 169.45 16.58C168.83 18 168.52 19.51 168.52 21.1C168.52 22.69 168.82 24.2 169.45 25.61C170.07 27.02 170.9 28.25 171.97 29.3C173.03 30.35 174.26 31.19 175.68 31.8C177.09 32.42 178.59 32.72 180.19 32.72C181.64 32.72 183.03 32.47 184.35 31.98C185.66 31.49 186.83 30.81 187.85 29.94C188.86 29.07 189.69 28.03 190.34 26.83C190.98 25.62 191.37 24.31 191.49 22.9C191.51 22.74 191.52 22.49 191.52 22.18C191.52 21.87 191.53 21.54 191.55 21.22C191.55 20.85 191.56 20.45 191.58 20.02H183.05V23.89L183.03 23.9Z" fill="#043268"/>
<path d="M208.42 24.76C209.84 24.2 210.97 23.3 211.83 22.04C212.68 20.77 213.1 19.29 213.1 17.59C213.1 16.46 212.91 15.42 212.54 14.47C212.15 13.52 211.63 12.7 210.95 12.01C210.28 11.33 209.46 10.79 208.51 10.42C207.56 10.04 206.51 9.85004 205.36 9.85004H195.16V13.66H205.35C206.11 13.66 206.71 13.8 207.16 14.09C207.61 14.37 207.96 14.72 208.2 15.13C208.44 15.54 208.6 15.96 208.69 16.42C208.77 16.87 208.81 17.26 208.81 17.59C208.81 18.22 208.7 18.78 208.49 19.25C208.28 19.72 208 20.11 207.68 20.43C207.35 20.75 206.98 20.99 206.56 21.14C206.14 21.29 205.74 21.37 205.35 21.37H195.16V32.33H199.46V25.18H203.71C204.57 26.41 205.42 27.61 206.28 28.8C207.13 29.99 208.01 31.17 208.91 32.33H214.03C212.19 29.79 210.32 27.28 208.43 24.78L208.42 24.76Z" fill="#043268"/>
<path d="M226.1 9.88L214.63 32.31H219.29L226.32 18.26L233.35 32.31H238.01L226.53 9.88H226.1Z" fill="#043268"/>
<path d="M245.56 9.88H241.26V32.31H245.56V9.88Z" fill="#043268"/>
<path d="M266.3 9.88002V23.44L251.08 9.46002V32.31H255.37V18.97L270.59 32.73V9.88002H266.3Z" fill="#043268"/>
<path d="M36.19 5.4L0 41.59V36.26L5.7 30.56C4.03 29.42 2.06 28.8 0 28.8V25.03C3.08 25.03 5.99 26.02 8.4 27.86L11.3 24.96C8.12 22.37 4.17 20.96 0 20.96V17.19C5.17 17.19 10.07 18.99 13.97 22.28L16.63 19.62C12.01 15.64 6.18 13.45 0 13.45V9.68C7.18 9.68 13.97 12.26 19.3 16.97L21.94 14.33C15.9 8.91 8.18 5.95 0 5.95V2.18C9.18 2.18 17.85 5.53 24.61 11.64L36.26 0L36.19 5.4Z" fill="#043268"/>
<path d="M6.8501 40.26H12.1801L36.1901 16.25V10.92L6.8501 40.26Z" fill="#043268"/>
<path d="M17.7 40.26H23.04L36.1899 27.1V21.77L17.7 40.26Z" fill="#043268"/>
</g>
<defs>
<clipPath id="clip0_132_533">
<rect width="270.59" height="41.59" fill="white"/>
</clipPath>
</defs>
</svg>
